<svg id="visual" viewBox="0 0 900 600" width="900" height="600" xmlns="http://www.w3.org/2000/svg" xmlns:xlink="http://www.w3.org/1999/xlink" version="1.1"><path d="M654 600L644.3 585.7C634.7 571.3 615.3 542.7 623.8 514.2C632.3 485.7 668.7 457.3 689.3 428.8C710 400.3 715 371.7 708 343C701 314.3 682 285.7 669.2 257C656.3 228.3 649.7 199.7 635.2 171.2C620.7 142.7 598.3 114.3 613.2 85.8C628 57.3 680 28.7 706 14.3L732 0L900 0L900 14.3C900 28.7 900 57.3 900 85.8C900 114.3 900 142.7 900 171.2C900 199.7 900 228.3 900 257C900 285.7 900 314.3 900 343C900 371.7 900 400.3 900 428.8C900 457.3 900 485.7 900 514.2C900 542.7 900 571.3 900 585.7L900 600Z" fill="#f6ac3f" stroke-linecap="round" stroke-linejoin="miter"></path></svg>